<svg xmlns="http://www.w3.org/2000/svg" viewBox="0 0 1400 720" role="img" aria-label="侦探办公室">
  <defs>
    <linearGradient id="bg" x1="0" x2="1" y1="0" y2="1">
      <stop offset="0" stop-color="#080513"/>
      <stop offset=".55" stop-color="#120a24"/>
      <stop offset="1" stop-color="#06020b"/>
    </linearGradient>
    <filter id="glow" x="-40%" y="-40%" width="180%" height="180%">
      <feGaussianBlur stdDeviation="8" result="blur"/>
      <feMerge>
        <feMergeNode in="blur"/>
        <feMergeNode in="SourceGraphic"/>
      </feMerge>
    </filter>
  </defs>
  <rect width="1400" height="720" fill="url(#bg)"/>
  <path d="M0 510 C180 440 290 470 420 505 C570 545 690 505 840 470 C1030 425 1170 460 1400 390 L1400 720 L0 720 Z" fill="#0b1022" opacity=".9"/>
  <g opacity=".55">
    <rect x="80" y="86" width="260" height="170" rx="6" fill="#10111a" stroke="#43305e"/>
    <line x1="110" y1="130" x2="310" y2="130" stroke="#ff184f" opacity=".55"/>
    <line x1="110" y1="170" x2="270" y2="170" stroke="#4fd1c5" opacity=".45"/>
    <line x1="110" y1="210" x2="290" y2="210" stroke="#94a3b8" opacity=".35"/>
  </g>
  <g transform="translate(460 130)" opacity=".78">
    <rect width="360" height="250" rx="8" fill="#0c0915" stroke="#43305e"/>
    <rect x="26" y="24" width="92" height="64" rx="4" fill="#15101f" stroke="#ff184f" opacity=".75"/>
    <rect x="138" y="24" width="188" height="12" fill="#4fd1c5" opacity=".55"/>
    <rect x="138" y="52" width="136" height="10" fill="#94a3b8" opacity=".35"/>
    <circle cx="272" cy="158" r="42" fill="none" stroke="#ff184f" stroke-width="3" opacity=".7" filter="url(#glow)"/>
    <path d="M60 164 L142 132 L194 168 L246 112" fill="none" stroke="#4fd1c5" stroke-width="4" opacity=".75"/>
  </g>
  <g transform="translate(850 170)" opacity=".72">
    <path d="M0 260 L280 220 L345 350 L40 390 Z" fill="#0c0915" stroke="#43305e"/>
    <rect x="70" y="0" width="190" height="170" rx="8" fill="#15101f" stroke="#43305e"/>
    <path d="M92 30 H236 M92 62 H206 M92 94 H220 M92 126 H190" stroke="#ff184f" opacity=".48"/>
    <circle cx="166" cy="282" r="54" fill="#ff184f" opacity=".08" filter="url(#glow)"/>
  </g>
  <g filter="url(#glow)">
    <circle cx="1120" cy="105" r="5" fill="#ff184f"/>
    <circle cx="1145" cy="120" r="3" fill="#4fd1c5"/>
    <circle cx="1094" cy="126" r="3" fill="#ff184f"/>
  </g>
</svg>
